<?xml version="1.0" encoding="UTF-8"?>
<svg id="Layer_2" data-name="Layer 2" xmlns="http://www.w3.org/2000/svg" viewBox="0 0 123.23 123.54">
  <g id="Layer_1-2" data-name="Layer 1">
    <path d="M67.87.61c.9,1.07,1.09,8.29,2.17,9.21,1.99.03,9.21,2.97,10.46,2.63,1.66-.45,5.62-7.01,6.94-6.8.9.14,9.85,5.45,10.15,6.04-.63,3.13-2.1,6.35-3.12,9.48.93.33,2.01,1.18,2.73,1.85,1.29,1.2,3.84,4.56,4.9,5.25.46.3.56.38,1.15.32,1.63-.18,7.78-3.3,8.78-2.43s5.62,9.17,5.6,10.17c-.56,1.61-6.97,5.66-6.95,6.94.03,2.02,2.9,7.65,3.02,10.23l9.28,2.1c.36,4.1.29,8.02.07,12.12-.21.78-8.49,1.32-9.34,2.32-1.03,1.22-1.81,8.54-3.02,10.5l6.57,5.83c.52.49.36.89.21,1.47-.33,1.3-4.69,9.17-5.63,9.75-2.02.23-7.77-3.02-9.22-2.65-1.3.33-5.42,6.32-7.35,7.16-1.22,2.06,2.21,6.99,2.44,9.2.05.5-.21.68-.54.97-.85.77-9.35,5.72-9.96,5.67-1.87-.97-5.08-6.42-6.71-6.86-1.44-.39-7.45,2.54-9.56,2.29-.59.12-.95.26-1.23.84-.77,1.53-1.1,8.36-2.13,9.04-2.05.05-10.74.73-11.85-.18-1.01-.83-1.59-7.82-2.33-9.47l-10.79-2.52c-1.12.32-4.67,5.78-5.86,6.61-.37.25-.59.45-1.05.21-1.38-1.15-9.31-4.76-9.86-5.71-.7-1.19,2.75-7.78,2.77-9.57-1.68-1.51-3.34-3.01-4.92-4.62-.92-.94-1.86-3.22-3.4-3.05-2.32.26-6.08,2.47-8.15,2.66-1.54.14-5.88-8.62-6.58-10.32.07-.38,1.93-2.1,2.41-2.55.79-.75,4.01-2.96,4.36-3.52.7-1.12-2.74-9.5-2.77-11.52-1.58-.43-8.64-1.1-9.25-2.13-.47-.8-.35-11.27.2-11.81,1.04-1.03,8.77-1.52,9.17-2.09l2.88-11.06c-1.11-.97-7.09-5.5-7-6.62.97-1.56,4.93-10.19,6.58-10.04,1.79.16,7.33,3,8.79,2.66,1.81-1.66,3.29-3.6,5.04-5.33.65-.64,2.21-1.4,2.51-2.07.66-1.47-3.43-8.48-2.63-9.84.3-.5,9.56-5.75,10.15-5.8.88-.08,5.44,6.06,6.63,6.91l10.6-2.42c1.06-.54,1.09-8.92,2.76-9.75.99-.49,11.33-.37,11.91.31ZM57.95,22.57c-28.1,2.51-44.64,33.86-30.62,58.51,14.94,26.25,52.49,26.74,68.12.93,16.73-27.63-5.64-62.29-37.51-59.44Z"/>
  </g>
</svg>