<?xml version="1.0" encoding="UTF-8"?>
<svg id="Layer_2" data-name="Layer 2" xmlns="http://www.w3.org/2000/svg" viewBox="0 0 123.51 123.34">
  <g id="Layer_1-2" data-name="Layer 1">
    <path d="M65.07,0c.17,1.51.38,8.73,1.22,9.33.56.4,4.3.82,4.99.4.82-.49,2.23-6.46,2.96-7.8.25-.45.27-.65.87-.62.52.02,5.47,1.39,5.63,1.63.32,1.52-1.67,8.68-1.14,9.42.14.2,4.43,1.71,4.67,1.65.69-.17,3.87-5.74,4.98-6.6,1.19-.92,5.83,2.05,5.97,2.78.16.83-3.72,7.28-3.57,8.24.04.23,3.33,2.78,3.65,2.89,1.51.52,5.87-4.55,7.63-5.2.67,0,4.37,3.74,4.36,4.36-.38,1.43-5.52,6.41-5.35,7.39.04.25,2.85,3.9,3.1,3.96.74.18,7.95-4.28,8.83-3.66.1,1.61,2.8,4.1,2.46,5.47-.36,1.44-6.13,4.21-6.79,5.26-.43.67,1.38,4.89,1.75,4.98,1.56.39,8.8-1.56,9.22-1.25l1.5,6.22c-1.1.83-8.1,2.78-8.46,3.35-.27.43.34,5.05,1.03,5.26,1.92.6,8.43-.26,8.85,1.91.14.71.09,4.8-.19,5.2-.79,1.13-8.61.79-9.16,1.6-.15.21-.69,4.68-.53,4.93.38.6,8.38,2.69,8.54,3.56l-1.58,6.01c-.42.31-7.67-1.64-9.22-1.25-.35.09-2.18,4.29-1.75,4.98.68,1.08,6.46,3.93,6.79,5.26s-2.36,3.86-2.46,5.47c-.87.62-8.09-3.84-8.83-3.66-.26.06-3.13,3.96-3.09,4.23.16,1.11,5.72,6.66,5.72,7.11-1,.74-3.78,4.36-4.74,4.36-.24.03-.41-.12-.61-.21-1.41-.65-4.56-4.43-5.81-5-1.06-.48-4.8,2.55-4.86,2.9-.15.96,3.72,7.41,3.57,8.24-.12.62-4.77,3.62-5.73,2.97-1.58-1.24-3.53-5.55-4.74-6.47s-3.84,1.08-5.23,1.54l1.22,9.2-6.17,1.54c-.98-1.37-2.39-8.07-3.57-8.46-.63-.21-4.61.33-4.92.75-.8,1.11-.69,7.37-1.01,9.13h-6.63s-.82-9.52-.82-9.52c-1.32.35-4.31-.96-5.32-.34-.6.37-2.91,8.56-3.61,8.63-1.3-.66-5.15-.84-5.79-2.09-.57-1.11,1.88-7.68,1-9.04-.13-.21-4.4-1.75-4.64-1.68-1.31.39-4.06,7.24-6.17,6.94-.64-.09-4.67-2.54-4.73-3.03-.12-1.1,3.68-7.82,3.58-8.26-1.14-.67-3.34-3.3-4.55-2.98-1.49.4-5.34,5.22-6.83,5.23-.68,0-4.36-3.73-4.35-4.35.61-1.6,5.63-6.23,5.24-7.66-.11-.4-2.72-3.61-3-3.66-.85-.16-6.61,3.58-8.18,3.63-.4-.09-3-4.22-3.09-4.83-.29-2.03,6.92-4.8,6.9-6.44,0-.37-1.62-4.39-1.85-4.45-2.64-.25-5.82,1.19-8.31,1.16-1.49-.02-2.54-5.2-1.98-6.11.79-1.28,6.65-2.24,7.67-3.09.9-.75.3-5.22-.68-5.54-1.79-.58-7.36.02-8.44-1.08-.6-.6-.63-5.29-.2-6.02.86-1.46,8.31-.57,9.12-1.64.5-.66.9-4.27.42-4.99s-7.15-2.09-7.89-3.29c-.54-.88.56-5.91,1.71-6.12,1.62-.29,7.64,1.84,8.8,1.09.18-.12,1.62-3.76,1.65-3.97.32-2.15-7.23-4.68-6.92-6.84.09-.62,2.69-4.73,3.09-4.83,1.85.14,6.94,3.71,8.25,3.56.4-.05,3.23-3.45,2.89-4.4-.52-1.48-5.2-5.96-5.2-6.85.43-.99,3.63-4.37,4.36-4.36,1.64.45,6.07,5.54,7.38,5.31.94-.16,2.93-2.45,3.95-3.01.07-.85-3.36-6.54-3.49-8.05-.08-.93,4.63-3.46,5.33-3.28,1.38.35,4.02,6.02,5.26,6.8.35.22,4.3-1.14,4.72-1.43,1.28-.89-1.41-7.99-.82-9.15.64-1.24,4.49-1.43,5.79-2.09.59.06,3.06,8.29,3.61,8.63,1.01.62,4-.69,5.32-.34L58.45,0h6.62ZM58.36,22.48c-30.87,2.56-46.55,38.58-27.82,63.17,17.27,22.66,53.25,19.62,66.21-5.74,14.17-27.75-7.4-60-38.39-57.42Z"/>
  </g>
</svg>