<?xml version="1.0" encoding="UTF-8"?>
<svg id="Layer_2" data-name="Layer 2" xmlns="http://www.w3.org/2000/svg" viewBox="0 0 123.21 120.9">
  <g id="Layer_1-2" data-name="Layer 1">
    <path d="M72.04,1c1.03,1.03,2.17,9,3.42,10.03,3.44,1.05,7.23,2.39,10.43,4.06,1.29.68,6.28,4.24,6.81,4.33,1.38.23,8.05-3.74,10.2-3.56,1.34.34,8.59,9.28,9.73,10.99.55.81,3,4.71,2.93,5.21-.69,1.84-5.67,7.61-5.55,9.03,2.41,5.94,3.65,12.2,4.14,18.59,1.38,1.17,8.46,4.44,8.83,5.66,1.22,4.04-2.52,15.45-4.25,19.59-1.25,1.24-8.91.54-10.74,1.68-.48.3-5.19,7.76-6.47,9.26-1.52,1.8-3.25,3.37-4.98,4.95-1.28,2.24.83,8.43.88,11.12-.27,1.38-16.33,9.07-18.48,8.95-1.64-.1-5.57-6.43-7.51-7.34-6.56.52-12.94,1.6-19.39-.44-.51,0-5.52,6.57-7,7.43-.5.29-.52.33-1.13.31-1.51-.06-7.59-2.76-9.29-3.58-1.44-.69-7.33-3.82-8.03-4.8-1.56-2.16,1.33-9.12.63-11.02-.22-.6-4.28-4.14-5.14-5.16-2.56-3.01-4.7-6.41-6.81-9.75l-10.32-1.27c-1.32-.43-3.87-11.69-4.2-13.6-.3-1.73-1.1-4.73-.55-6.35.35-1.02,7.63-4.48,8.83-5.66.46-3.49.76-7,1.57-10.43.49-2.07,2.68-6.72,2.77-8.02.16-2.17-5.75-7.19-5.31-9.8.34-2.03,6.7-10.04,8.41-11.91.57-.62,3.1-3.32,3.54-3.52,2.05-.94,9.03,3.68,10.47,3.44.46-.08,6.51-4.1,8-4.82,2.97-1.44,6.11-2.55,9.24-3.59,1.35-1.65,2.51-9.56,4.15-10.33.45-.21,4.27-.58,5.16-.64,2.15-.13,13.95-.13,15.03.94ZM89.79,34.16c-18.03-18.28-49-14.74-62.01,7.44-17.01,29,7.24,63.98,40.31,58.94,31.17-4.75,43.77-44,21.7-66.38Z"/>
  </g>
</svg>