<?xml version="1.0" encoding="UTF-8"?>
<svg id="Layer_2" data-name="Layer 2" xmlns="http://www.w3.org/2000/svg" viewBox="0 0 283.87 381.76">
  <defs>
    <style>
      .cls-1 {
        fill: #fff;
        stroke: #000;
        stroke-miterlimit: 10;
      }
    </style>
  </defs>
  <g id="Layer_1-2" data-name="Layer 1">
    <path class="cls-1" d="M49.92,62.69h0C19.99,136.77,8.14,197.69,2.93,237.76c-2.4,18.5-7.35,62.99,11.37,105.35,2.47,5.59,17.18,31.2,28.8,36.38s6.14-2.33,6.82-5.31c1.04-4.57-6.33-17.91-6.57-19.45-3.03-19.71-7.96-56.08,6.72-163.2,6.52-47.59,29.06-92.46,31.68-91.71,1.86.54-17.99,20.72-25.29,60.64-8.24,45.05-21.44,94.22,14.68,130.35,2.68,2.68,7.22.6,7.45-3.16.72-11.54-3.04-19.01-3.66-22.61-3.98-22.95,4.84-62.9,13.14-97.89,7.77-32.8,14.88-61.49,16.29-61.01,1.23.42-12.9,24.95-14.4,60.63-1.34,31.98,7.25,70.81,13.61,70.99,2.67.08,4.55-6.04,6.22-9.85,22.99-52.42,24.51-120.63,24.51-113.81,0,1.56-5.7,28.97-2.27,60.25,1.57,14.37,4.01,20.24,6.57,20.97,5,1.42,16.88-13.68,19.96-19.45,19.96-37.39,12.85-75.35,15.39-75.32,3.03.04-5.85,50.86,10.88,53.09,27.54,3.66,30.95-78.95,31.07-90.95.06-5.49-7.72,78.07,4.55,70.48,35.12-21.73,25.8-69.46,26.91-78.19.51-4.02-9.25,70.1,0,67.58,28.29-7.71,20.34-55.45,24.63-65.18,2.19-4.96-11.7,43.58,3.79,45.47,5.18.63,7.58-63.66,7.58-63.66L77.96.54c-16.23,15.41-23.29,35.34-26.53,51.54l-1.52,10.61Z"/>
  </g>
</svg>