<?xml version="1.0" encoding="UTF-8"?>
<svg id="Layer_2" data-name="Layer 2" xmlns="http://www.w3.org/2000/svg" viewBox="0 0 91.14 161.17">
  <defs>
    <style>
      .cls-1 {
        fill: #fff;
        stroke: #231f20;
        stroke-miterlimit: 10;
      }
    </style>
  </defs>
  <g id="Layer_1-2" data-name="Layer 1">
    <path class="cls-1" d="M15.05,5.32C2.21,14.19-.58,30.98.83,31.69c1.04.53,5.24-7.34,7.11-6.52,1.42.63-.27,5.48-.06,12.15.15,4.84,1.24,8.71,3.62,15.11,4.83,12.98,7.25,19.47,12.74,29.04,17.55,30.6,19.73,64.33,23.33,63.7,2.2-.38,1.63-12.93,1.55-14.52-.43-8.68-2.47-14.63-7.54-28.44-9.63-26.25-10.45-27.06-10.83-26.96-1.01.27-.73,7.32,1.48,13.81,4.07,11.95,13.37,18.2,18.96,22.63,26.31,20.87,32.53,50.79,37.04,48.89,2.44-1.03.96-9.99,0-13.93-1.79-7.35-5.29-11.84-10.95-19.56-4.95-6.74-9.63-13.67-14.53-20.44-13.92-19.23-15.68-22.19-17.58-26.07-4.57-9.38-6.18-16.51-7.02-16.3-.83.21-.28,7.47,2.07,14.52.71,2.12,3.77,10.79,12.44,19.85,5.04,5.26,5.91,4.33,21.08,15.41,10.98,8.02,14.2,11.19,15.81,10.07,2.39-1.66-.95-11.26-4.59-18.07-5.53-10.37-10.29-11.57-19.85-23.07-10.7-12.87-14.86-23.52-16.3-22.86-1.03.47-.3,6.53,2.67,12.15,6.25,11.82,16.35,10.21,31.7,24.89,3.34,3.19,6.27,6.53,7.18,5.93,1.17-.78-1.81-7.65-4.51-12.44-7.21-12.8-13.64-12.99-21.63-23.41-2.62-3.42-6-11.86-12.74-28.74-1.49-3.73-4.69-11.88-9.91-22.25C35.93,5,33.34,1.93,29.57.88c-5.76-1.61-11.4,2.29-14.52,4.44Z"/>
  </g>
</svg>