<?xml version="1.0" encoding="UTF-8"?>
<svg id="Layer_2" data-name="Layer 2" xmlns="http://www.w3.org/2000/svg" viewBox="0 0 97.72 64.75">
  <defs>
    <style>
      .cls-1 {
        fill: #fff;
        stroke: #231f20;
        stroke-miterlimit: 10;
      }
    </style>
  </defs>
  <g id="Layer_1-2" data-name="Layer 1">
    <path class="cls-1" d="M97.14,12.41c-1.48-3.22-16.73,6.54-28.44-.04-7.21-4.05-8.73-11.84-15.39-11.87-2.15-.01-4.03.98-7.71,2.95-7.16,3.85-11.78,8.23-12.46,8.87C17,27.6,6.83,27.3,2.29,39.55c-2.68,7.25-2.07,15.33-.02,16,3.05.99,10.67-14.1,11.28-13.62S-.14,62.42,7,63.85s13.25-21.76,15.43-20.72c.16.08.23.26.27.42-3,4.43-13.07,18.66-5.63,20.35s9.48-18.63,11.87-17.79c-1.48,3.24-9.1,17.07-1.21,17.81,7.61.71,5.85-17.36,7.14-20.77,1.34,2.58-4.09,23.96,4.12,20.78,6.14-7.47,3.25-17.78,3.58-20.18.6-4.39-1.03,24.2,7.12,14.28,2.14-3.96,2.54-23.55,2.37-21.38-.3,3.9-3.21,35.3,7.11,13.08,1.07-12.55-.92-11.08,2.22-18.52,3.57-1.98,5.94-1.36,13.63-2.52,3.34-.5,6.38-.04,13.21-6.22,6.37-5.77,9.55-8.65,8.9-10.06Z"/>
  </g>
</svg>