<?xml version="1.0" encoding="UTF-8"?>
<svg id="Layer_2" data-name="Layer 2" xmlns="http://www.w3.org/2000/svg" viewBox="0 0 89.85 66.59">
  <defs>
    <style>
      .cls-1 {
        fill: #fff;
        stroke: #231f20;
        stroke-miterlimit: 10;
      }
    </style>
  </defs>
  <g id="Layer_1-2" data-name="Layer 1">
    <path class="cls-1" d="M17.32,14.61c-6.26,4.82-8.79,9.58-9.48,10.96-2.03,4.05-1.14,4.75-3.41,13.78-2.63,10.48-5.46,16.04-2.96,18.96.23.27,1.15,1.34,2.37,1.33,6.13.11,7.41-8.59,9.59-10.85s9.37-20.7,9.37-20.7c.23-.49.77-1.67.89-1.63.65.24-17.07,26.33-10.81,36.44,6.33.78,8.3-8.69,12.59-18.37,2.61-5.88,4.42-12.11,4.3-12.15-.14-.05-5.57,7.33-7.15,18.19-.52,3.55-.41,14.51,2.11,15.44,2.3.85,7.23-5.83,10.07-11.7,5.52-11.39,4.98-23.46,4.3-23.56-.43-.06-3.91,8.68-6.09,26.9-.35,2.95,1.76,5.74,2.68,6.14,1.76.77,7.31-6.1,10.07-13.63,2.93-7.96,2.67-16.44,1.78-16.59-.83-.14-3.23,6.79-3.11,14.07.06,3.29.14,8.35,2.22,9.04,2.82.93,8.99-6.31,10.81-14.37,1.29-5.69.38-11.7,0-11.7-.52,0-2.85,11.33,1.63,14.37,1.59,1.08,3.8.94,5.33.3,3.85-1.63,4.91-7.08,6.37-14.67.71-3.67.9-6.18,2.22-11.56.94-3.82,1.53-5.36,2.81-6.81,1.86-2.11,3.38-2.01,6.81-4.15.5-.31,7.18-4.47,6.67-6.37-.31-1.17-3.57-2.32-27.56.74-30.01,3.83-38.2,7.34-44.44,12.15Z"/>
  </g>
</svg>