<?xml version="1.0" encoding="UTF-8"?>
<svg id="Layer_2" data-name="Layer 2" xmlns="http://www.w3.org/2000/svg" viewBox="0 0 139.75 107.35">
  <defs>
    <style>
      .cls-1 {
        fill: #fff;
        stroke: #231f20;
        stroke-miterlimit: 10;
      }
    </style>
  </defs>
  <g id="Layer_1-2" data-name="Layer 1">
    <path class="cls-1" d="M60.56,14.03c-4.32,2.09-5.77,5.2-10.23,11.61,0,0-7.35,10.56-20.22,23.78C14.08,65.88-.54,69.24.56,72.3c.98,2.74,13.63,2.68,23.78-3,9.3-5.2,14.24-13.84,15.11-13.22.59.42-1.44,4.54-4,8.67-3.87,6.23-9.03,12.62-20,23.11-7.37,7.04-10.82,9.68-10.22,10.67.79,1.3,8.09-1.33,13.78-4.22,17.41-8.85,24.76-22.66,27.37-21.11,2.14,1.27-1.57,11.35-1.81,12-1.83,4.9-4.02,7.64-8,16.44-2.03,4.49-1.99,4.93-1.78,5.11,1.42,1.21,12.66-8.11,19.78-19.11,3.25-5.03,5.16-9.67,5.74-11.12.61-1.54,1.73-4.52,2.7-8.43,1.13-4.56,2.52-12.24,1.78-12.44-1.7-.47-16.14,38.15-10.44,41.33,1.41.79,4.37-.42,6-1.56,1.77-1.24,2.69-2.92,3.89-5.18,1.38-2.59,2.05-4.68,2.33-5.48,2.65-7.77,6.08-8.35,8.44-15.78,1.3-4.08,1.69-8.36,1.11-8.53-.96-.28-4.93,10.69-5.11,11.2-2.01,5.59-8.4,23.34-5.11,25.11,2.37,1.27,9.3-5.99,13.11-12.67,2.04-3.57,2.93-6.52,4.44-11.56,2.23-7.41,4.01-16.39,3.11-16.67-.6-.18-2.35,3.54-3.33,6.22-3.08,8.37-3.4,19.14-.67,20,2.75.86,7.82-8.55,8.23-9.33.26-.49.53-1.01.79-1.58,3.68-7.86,4.64-17.96,3.64-18.2-.65-.16-2.37,3.84-3.11,7.47-.99,4.87-.76,11.84,1.56,12.53,1.93.58,4.65-3.42,8-8.44,5.75-8.61,11.92-20.95,9.78-22.44-.67-.47-1.93.3-2.89.89-4.32,2.64-6.95,9.49-4.36,12.67,1.05,1.28,3.08,2.11,5.02,1.78,2.87-.5,4-3.25,9.11-13.22,5.22-10.19,5.79-10.72,6.44-13.67.8-3.59.47-5.07,1.78-9.56.59-2.04,1.55-5.34,3.56-8.65,4.19-6.94,9.58-8.32,9.11-10.02-.62-2.22-10.57-2.58-21.33,0-18.51,4.44-19.61,12.82-32.67,13.56-11.76.66-16.42-5.82-24.66-1.83Z"/>
  </g>
</svg>