<?xml version="1.0" encoding="UTF-8"?>
<svg id="Layer_2" data-name="Layer 2" xmlns="http://www.w3.org/2000/svg" viewBox="0 0 288.84 489.49">
  <defs>
    <style>
      .cls-1 {
        fill: #fff;
        stroke: #000;
        stroke-miterlimit: 10;
      }
    </style>
  </defs>
  <g id="Layer_1-2" data-name="Layer 1">
    <path class="cls-1" d="M49.92,170.42h0C19.99,244.51,8.14,305.42,2.93,345.49c-2.4,18.5-7.35,62.99,11.37,105.35,2.47,5.59,17.18,31.2,28.8,36.38s6.14-2.33,6.82-5.31c1.04-4.57-6.33-17.91-6.57-19.45-3.03-19.71-7.96-56.08,6.72-163.2,6.52-47.59,29.06-92.46,31.68-91.71,1.86.54-17.99,20.72-25.29,60.64-8.24,45.05-21.44,94.22,14.68,130.35,2.68,2.68,7.22.6,7.45-3.16.72-11.54-3.04-19.01-3.66-22.61-3.98-22.95,4.84-62.9,13.14-97.89,7.77-32.8,14.88-61.49,16.29-61.01,1.23.42-12.9,24.95-14.4,60.63-1.34,31.98,7.25,70.81,13.61,70.99,2.67.08,4.55-6.04,6.22-9.85,22.99-52.42,24.51-120.63,24.51-113.81,0,1.56-5.7,28.97-2.27,60.25,1.57,14.37,4.01,20.24,6.57,20.97,5,1.42,16.88-13.68,19.96-19.45,19.96-37.39,12.85-75.35,15.39-75.32,3.03.04-5.85,50.86,10.88,53.09,27.54,3.66,30.95-78.95,31.07-90.95.06-5.49-7.72,78.07,4.55,70.48,35.12-21.73,25.8-69.46,26.91-78.19.51-4.02-9.25,70.1,0,67.58,28.29-7.71,20.34-55.45,24.63-65.18,2.19-4.96-11.7,43.58,3.79,45.47,5.18.63,7.58-63.66,7.58-63.66l-205.39-38.65c-16.23,15.41-23.29,35.34-26.53,51.54l-1.52,10.61Z"/>
    <path class="cls-1" d="M82.35,68.3C62.85,87.8,6.5,188.27,17.96,245.07l4.39,2.23c57.76-31.03,58.9-75.89,68.87-88.13,7.09-8.71-20.03,88-13.87,88.13,9.83.2,50.25-20.93,61.37-103.79,1.5-11.18-26.3,80.89.63,92.79,17.56,7.76,35.24-45.29,43-74,1.64-6.07-16.02,48.19-1,55,25.58,11.6,36.64-61.81,35-82-.49-6.07-6.63,59.7,7.76,62.78s13.64-37.39,12.24-49.78c-.72-6.41-4.66,42.08,11,43,20.72,1.22,18.59-29.28,13-45-1.7-4.77,6.96,37.75,14,38,3.94.14,7.29-11.51,8-14,0,0,0-33,0-33-35-15.52-178.37-90.63-200-69Z"/>
    <path class="cls-1" d="M277.35,119.3c-8.48-4.57-14.94,4.12-28,3-26.49-2.27-43.63-41.74-45-45-9.07-21.53-11.26-49.27-23-68-1.44-2.3-4.18-6.3-9-8-8.18-2.89-17.14,2.7-22,6-50.56,34.34-74,70-74,70-11.55,17.56-27.11,45.3-38,83,8.44-6.22,14.04-8.3,19.63-10.37,14.33-5.32,61.76-49.64,56.37-45.63-20.01,14.89-26.34,74.53-20,78,5.6,3.06,46.67-70.15,44.75-49.99s8.75,49.52,14.25,50.36c6.27.97,22.39-57.14,20-49.37-4,13,11.85,39.79,17,40,5.25.21,10.25-41.32,15-41,4.07.28,3.14,30.89,10,32,6.24,1,14.03-23.15,18-22,3.96,1.14-.85,25.95,3,27,3.61.98,10.7-20.05,16-19,4.49.89,4.41,16.94,7,17,2.7.06,2.79-17.43,9-19,6-1.52,11.87,13.3,16,12,5.66-1.78,6.85-33.55-7-41Z"/>
  </g>
</svg>