<?xml version="1.0" encoding="UTF-8"?>
<svg id="Layer_2" data-name="Layer 2" xmlns="http://www.w3.org/2000/svg" viewBox="0 0 266.91 183.95">
  <defs>
    <style>
      .cls-1 {
        fill: #fff;
        stroke: #000;
        stroke-miterlimit: 10;
      }
    </style>
  </defs>
  <g id="Layer_1-2" data-name="Layer 1">
    <path class="cls-1" d="M66.41,4.38C46.91,23.88-9.44,124.35,2.02,181.15l4.39,2.23c57.76-31.03,58.9-75.89,68.87-88.13,7.09-8.71-20.03,88-13.87,88.13,9.83.2,50.25-20.93,61.37-103.79,1.5-11.18-26.3,80.89.63,92.79,17.56,7.76,35.24-45.29,43-74,1.64-6.07-16.02,48.19-1,55,25.58,11.6,36.64-61.81,35-82-.49-6.07-6.63,59.7,7.76,62.78s13.64-37.39,12.24-49.78c-.72-6.41-4.66,42.08,11,43,20.72,1.22,18.59-29.28,13-45-1.7-4.77,6.96,37.75,14,38,3.94.14,7.29-11.51,8-14,0,0,0-33,0-33C231.41,57.87,88.05-17.25,66.41,4.38Z"/>
  </g>
</svg>