<?xml version="1.0" encoding="UTF-8"?>
<svg id="Layer_2" data-name="Layer 2" xmlns="http://www.w3.org/2000/svg" viewBox="0 0 60.44 80.4">
  <defs>
    <style>
      .cls-1 {
        fill: #fff;
        stroke: #231f20;
        stroke-miterlimit: 10;
      }
    </style>
  </defs>
  <g id="Layer_1-2" data-name="Layer 1">
    <path class="cls-1" d="M59.62,37.91c-1.18-8.74-1.77-13.1-3.11-16.44-3.24-8.05-7.96-12.85-10.22-15.11C42.34,2.42,39.95.03,37.44.58c-2.77.61-3.42,4.32-7.7,15.11-2.98,7.51-4.46,11.27-5.68,12.89-5.58,7.45-11,5.43-17.33,12.89-1.43,1.68-5.94,6.99-6.22,14.67-.37,10.24,7.07,17.07,9.78,19.56,1.42,1.31,5.6,5.14,7.56,4,1.87-1.08.83-6.15,0-10.22-1.08-5.28-3.2-13.54-4.44-13.33-.9.15-1.21,4.76-.33,8.67.25,1.1,1.75,7.28,7.22,10.56,1.36.82,3.24,1.94,4.44,1.22,1.28-.76,1.07-3.17.11-10-1.77-12.63-2.38-13.89-3.22-14-1.22-.16-2.6,2.17-3.11,3.89-1.57,5.26,2.82,11.99,8.22,13.22,1.94.44,5.17.44,6.11-1.22.97-1.71-1.24-3.84-4.11-9.67-3.27-6.63-3.41-9.99-4.11-9.89-1.1.17-2.59,8.74,2,14.33,1.99,2.43,5.68,4.98,7.67,3.89,1.84-1.01,1.48-4.73,1-9.78-.37-3.89-.85-8.91-2.67-9.22-1.28-.22-3.06,1.92-3.33,4-.49,3.74,3.9,7.44,8,8.11,1.97.32,5.37.18,6.33-1.67.72-1.39-.5-2.67-2.56-7.67-2.2-5.33-2.3-7.5-2.89-7.44-.88.08-2.5,5.14.11,8.44,1.68,2.14,4.89,3.25,7.11,2.22,3.5-1.62,3.57-8.09,1.44-12-1.25-2.29-3.62-4.37-4.44-3.89-1.26.74-.9,6.32,2.33,9.78,2.46,2.64,6.77,4.21,8.44,2.78.63-.54.69-1.85.78-4.44.11-3.19.16-4.89-.67-6.89-.76-1.83-2.47-4.4-3.56-4.11-1.24.33-1.94,4.47-.33,7.56,1,1.91,3.21,4.06,6,4,.45-.01,1.88-.04,3-1,1.99-1.7,1.61-5.1,1.22-8Z"/>
  </g>
</svg>