<?xml version="1.0" encoding="UTF-8"?>
<svg id="Layer_2" data-name="Layer 2" xmlns="http://www.w3.org/2000/svg" viewBox="0 0 251.37 183.18">
  <defs>
    <style>
      .cls-1 {
        fill: #fff;
        stroke: #000;
        stroke-miterlimit: 10;
      }
    </style>
  </defs>
  <g id="Layer_1-2" data-name="Layer 1">
    <path class="cls-1" d="M239.89,119.3c-8.48-4.57-14.94,4.12-28,3-26.49-2.27-43.63-41.74-45-45-9.07-21.53-11.26-49.27-23-68-1.44-2.3-4.18-6.3-9-8-8.18-2.89-17.14,2.7-22,6C62.33,41.64,38.89,77.3,38.89,77.3,27.34,94.86,11.78,122.61.89,160.3c8.44-6.22,14.04-8.3,19.63-10.37,14.33-5.32,61.76-49.64,56.37-45.63-20.01,14.89-26.34,74.53-20,78,5.6,3.06,46.67-70.15,44.75-49.99s8.75,49.52,14.25,50.36c6.27.97,22.39-57.14,20-49.37-4,13,11.85,39.79,17,40,5.25.21,10.25-41.32,15-41,4.07.28,3.14,30.89,10,32,6.24,1,14.03-23.15,18-22,3.96,1.14-.85,25.95,3,27,3.61.98,10.7-20.05,16-19,4.49.89,4.41,16.94,7,17,2.7.06,2.79-17.43,9-19,6-1.52,11.87,13.3,16,12,5.66-1.78,6.85-33.55-7-41Z"/>
  </g>
</svg>