<?xml version="1.0" encoding="UTF-8"?>
<svg id="Layer_2" data-name="Layer 2" xmlns="http://www.w3.org/2000/svg" viewBox="0 0 65.35 107.15">
  <defs>
    <style>
      .cls-1 {
        fill: #fff;
        stroke: #231f20;
        stroke-miterlimit: 10;
      }
    </style>
  </defs>
  <g id="Layer_1-2" data-name="Layer 1">
    <path class="cls-1" d="M13.55,12.1c-5.34,4.84-8.15,10.27-9.19,12.44-1.23,2.58-4.06,8.75-3.85,16.89.21,8.17,3.37,13.88,6.52,19.56,1.99,3.59,6.82,12.11,16.3,19.26,7.95,6,10.45,4.46,18.96,11.56,2.21,1.84,6.72,5.84,10.96,9.78,3.77,3.49,4.77,5.34,5.33,5.04,1.31-.71-1.84-11.4-8.26-20.85-3.39-4.99-4-4.2-8.67-10.67-6.63-9.19-8.51-15.1-10-14.67-1.29.38-1.59,5.3,0,9.56,1.85,4.95,5.66,7.34,9.11,9.89,14.36,10.6,19.15,21.34,22.33,19.67,1.38-.73,2.12-3.62,1.56-5.67-.34-1.21-1.08-1.96-1.33-2.22-3.62-3.75-4.26-8.45-10.67-16.56-4.2-5.32-4.91-4.54-9.44-10.56-2.96-3.93-4.56-6.78-5-6.56-.51.26.74,4.58,3,8.56,1.9,3.34,3.59,4.82,9.11,10.22,8.4,8.23,10.53,10.73,11.56,10.11,1.12-.67-.05-4.49-.44-5.78-1.62-5.31-4.03-6.42-8-12.78-3.65-5.84-2.64-6.53-5.78-10.22-2.37-2.79-3.78-3.37-6-6.78-1.97-3.02-2.76-5.49-3.44-5.33-.65.15-.77,2.58-.56,4.44.32,2.74,1.66,6.85,9.67,13.89,1.06.93,10.58,9.24,12,7.89.35-.33.11-1.16-5.22-10.89-3.47-6.34-4.33-7.73-5.89-11-1.42-2.98-1.23-2.91-3.44-7.78-4-8.79-5.19-10.27-7-11.22-2.83-1.5-6.5-1.36-7-.22-.51,1.14,2.43,2.79,6,6.89,4.14,4.75,2.73,5.44,6.67,10.32,2.92,3.62,3.05,2.44,11.78,10.79,2.08,1.99,2.99,2.93,3.44,2.67,1.14-.66-1.69-8.14-4.89-14.11-2.36-4.41-2.86-4.14-5.33-8.44-5.54-9.63-6.58-17.1-7.89-16.89-.89.14-1.18,3.7-1,6.33.52,7.74,5.41,13.15,8.89,16.89,3.14,3.38,8.48,8.16,9.67,7.22.58-.46-.04-2.12-2.78-8.22-3.71-8.27-5.56-12.4-8.44-17.78-4.58-8.54-6.9-12.8-8.22-12.56-2.14.4-3.94,7.44-1.22,12,2.02,3.39,4.87,2.61,9.56,6,7.76,5.61,9.05,14.32,10.89,13.78,1.18-.35,1.25-4.13.78-6.89-.71-4.09-2.44-4.88-4.44-9.22-3.19-6.92-1.06-9.83-4.56-13.67-2.14-2.35-5.48-4.05-6.44-3.22-1.52,1.3,2.71,8.85,6.67,13.89,2.26,2.87,7.36,8.67,9.11,7.67,1.52-.87-.18-6.45-.44-7.33-.82-2.71-1.88-4.41-4.67-8.78-5.45-8.56-5.69-8.82-5.78-8.78-.91.49.25,10.26,6.89,15.11.39.28,4.25,3.06,5.78,1.89.54-.41,1.22-1.65-1.44-9.56-2.46-7.3-3.7-10.95-5.33-12.67-7.57-7.93-28.57-3.1-40.44,7.67Z"/>
  </g>
</svg>